<svg id="Layer_1" data-name="Layer 1"
	xmlns="http://www.w3.org/2000/svg" viewBox="0 0 768 892.3">
	<defs>
		<style>.cls-1{fill:#1d9bf0;}.cls-2{fill:#fff;}.cls-3{fill:none;stroke:#1d9bf0;stroke-miterlimit:10;}</style>
	</defs>
	<path class="cls-1" d="M163.38,190.31l320-160a64,64,0,0,1,57.24,0l320,160A64,64,0,0,1,896,247.55v304.9a64,64,0,0,1-35.38,57.24l-320,160a64,64,0,0,1-57.24,0l-320-160A64,64,0,0,1,128,552.45V247.55A64,64,0,0,1,163.38,190.31Z" transform="translate(-128 -23.55)"/>
	<g id="Logo">
		<path id="white_background" data-name="white background" class="cls-2" d="M715.58,302.09c.32,4.23.32,8.46.32,12.73C715.9,444.94,610.23,595,417,595v-.08a312.08,312.08,0,0,1-161-44.14,229.36,229.36,0,0,0,25,1.42c47.3,0,93.25-14.84,130.46-42.23-44.95-.8-84.36-28.28-98.13-68.39a111.39,111.39,0,0,0,47.42-1.69c-49-9.28-84.26-49.65-84.26-96.52v-1.25a109.68,109.68,0,0,0,47.67,12.32C278,325.53,263.78,268,291.65,223c53.33,61.52,132,98.92,216.49,102.88-8.46-34.2,3.1-70,30.39-94.08,42.31-37.28,108.85-35.37,148.62,4.27a219.57,219.57,0,0,0,66.71-23.91c-7.85,22.8-24.26,42.16-46.18,54.46A219.71,219.71,0,0,0,768,251.08,206.48,206.48,0,0,1,715.58,302.09Z" transform="translate(-128 -23.55)"/>
	</g>
	<line class="cls-3" x1="640" y1="227.53" x2="640" y2="632.45"/>
	<path class="cls-3" d="M498.13,776.58,768,656Z" transform="translate(-128 -23.55)"/>
	<polygon class="cls-1" points="640 632.45 640 891.49 46.49 586.99 640 632.45"/>
	<polyline class="cls-3" points="640 632.45 640 891.49 46.49 586.99 16.2 571.45"/>
	<polyline class="cls-3" points="640 632.45 46.49 586.99 35.38 586.14"/>
</svg>
